<svg width="163" height="40" viewBox="0 0 163 40" fill="none" xmlns="http://www.w3.org/2000/svg">
<g clip-path="url(#clip0_4069_318)">
<path d="M21.0674 40.0002C32.7025 40.0002 42.1347 37.8033 42.1347 35.0933C42.1347 32.3834 32.7025 30.1865 21.0674 30.1865C9.43217 30.1865 0 32.3834 0 35.0933C0 37.8033 9.43217 40.0002 21.0674 40.0002Z" fill="url(#paint0_radial_4069_318)"/>
<path d="M22.2648 7.03142C24.7654 8.47529 27.2543 11.0578 27.4421 15.6653C26.996 20.5428 24.3017 20.8773 24.3017 20.8773C26.3092 12.7247 17.7508 11.5333 13.9353 15.9764C13.8825 15.9881 13.8355 15.9999 13.7827 16.0116C9.09845 17.8722 7.60161 21.6815 7.16723 24.534C6.85025 23.3718 6.68002 22.1451 6.68002 20.8832C6.68002 13.1767 12.9257 6.93164 20.633 6.93164C21.1847 6.93164 21.7306 6.96686 22.2648 7.03142Z" fill="url(#paint1_radial_4069_318)"/>
<path d="M23.0338 34.1247V11.9032L23.5914 11.7388V11.4512H23.8849V10.6764H22.529V8.75128H22.5935V8.46368H22.7168V8.28173H22.4409C22.3529 7.97652 22.1357 7.71827 21.8539 7.55979C21.8774 7.44828 21.9537 7.25459 22.1826 7.17241C22.4996 7.06676 22.6581 6.84373 22.6581 6.84373C22.6581 6.84373 22.2237 6.18635 22.1298 6.01614C22.0359 5.84593 21.9654 5.58181 21.9654 5.58181C21.9654 5.58181 22.0594 5.69919 22.0594 5.48203C22.0594 5.26486 22.1533 5.19442 22.1533 5.19442L22.3881 5.69332C22.3881 5.69332 22.5877 4.71313 22.5466 4.04402C22.4996 3.37491 22.2531 2.83492 21.9009 2.85253C21.6074 2.86427 21.5076 3.13426 21.4782 3.2223V1.30301H22.2942V1.02715H21.4782V0H21.2317V1.02128H20.4216V1.29714H21.2317V3.18709L21.038 3.14013C21.038 3.14013 21.1026 2.7821 20.8208 2.73514C20.539 2.68819 20.6564 3.08731 20.5977 3.09905C20.5332 3.11665 20.3277 2.89949 20.3571 2.5708C20.3864 2.24211 20.3747 2.10125 20.3747 2.10125C20.3747 2.10125 20.5449 1.88408 20.539 1.81952C20.5332 1.75495 20.4569 1.66104 20.4569 1.66104C20.4569 1.66104 20.2162 1.95451 20.2455 2.04842C20.2749 2.14233 20.1164 2.4945 20.2455 3.12839C20.3688 3.76229 20.4099 3.86794 20.4627 4.08511C20.5097 4.30227 20.5743 4.82465 20.5684 5.15334C20.5625 5.48203 20.5097 5.79897 20.5684 5.81658C20.6271 5.83419 20.6975 6.16875 20.6623 6.47395C20.6212 6.77916 20.586 7.26632 20.586 7.26632C20.586 7.26632 20.6271 7.38958 20.7562 7.38958C20.8091 7.38958 20.8443 7.41306 20.8619 7.43654C20.4275 7.55393 20.0929 7.87674 19.9755 8.28173H19.6996V8.46368H19.8229V8.75128H19.8875V10.6764H18.5256V11.4512H18.8191V11.7388L19.3768 11.9032V34.3302L23.0631 34.1247H23.0338Z" fill="url(#paint2_linear_4069_318)"/>
<path d="M34.5859 20.8832C34.5859 24.0878 33.5058 27.0343 31.6861 29.3938C31.1461 29.7518 30.565 30.0746 29.9486 30.3388C27.4774 31.3953 24.4074 31.5009 20.9088 29.1238C18.1382 26.3534 19.277 23.8179 19.277 23.8179C25.4992 30.4327 32.5608 22.5501 28.2933 16.6572C28.3285 16.3344 28.352 16.0115 28.3696 15.7063C28.5163 11.8384 26.7025 9.22651 24.7009 7.54199C30.4241 9.27934 34.5918 14.5911 34.5918 20.8832H34.5859Z" fill="url(#paint3_radial_4069_318)"/>
<path d="M19.682 29.2647C23.3742 32.7277 27.0841 32.4812 29.9956 31.2251C27.5184 33.4731 24.2371 34.8407 20.633 34.8407C15.0682 34.8407 10.2666 31.5831 8.02424 26.8759V26.8465C7.94793 23.9588 8.75211 19.9558 13.0255 17.3029C17.4514 15.2134 19.1185 17.4613 19.1185 17.4613C11.0297 20.0321 13.5244 29.3704 19.6761 29.2647H19.682Z" fill="url(#paint4_radial_4069_318)"/>
<path d="M55.6768 28.8012H50.9749V23.824C50.9749 21.4821 51.2097 19.24 51.6793 17.0918L48.1691 28.8071H42.4634V12.5312H47.1653V17.7022C47.1653 19.0111 47.1066 20.1087 46.9892 20.9832C46.8718 21.8636 46.6957 22.9142 46.4609 24.1292L50.0827 12.5312H55.6709V28.8071L55.6768 28.8012Z" fill="white"/>
<path d="M69.753 12.5254L69.2599 16.1292H65.5677V28.8013H60.7484V16.1292H56.7979V12.5254H69.753Z" fill="white"/>
<path d="M89.9105 25.1974V32.8922H86.7055L86.2359 28.8013H78.1001L77.6305 32.8922H74.4255V25.1974H75.664C76.0691 24.6692 76.4095 23.871 76.6913 22.8027C76.973 21.7345 77.2548 20.0911 77.5307 17.8783L78.1881 12.5254H88.4078V25.1974H89.9046H89.9105ZM83.7822 15.9649H82.2149L82.0975 17.2972C81.8803 19.5569 81.5575 21.2884 81.1407 22.4916C80.7181 23.689 80.1428 24.5929 79.4091 25.2033H83.7822V15.9707V15.9649Z" fill="white"/>
<path d="M104.01 28.8012H99.3083V23.824C99.3083 21.4821 99.5431 19.24 100.013 17.0918L96.5084 28.8071H90.8027V12.5312H95.5046V17.7022C95.5046 19.0111 95.4459 20.1087 95.3285 20.9832C95.2111 21.8636 95.035 22.9142 94.8002 24.1292L98.422 12.5312H104.01V28.8071V28.8012Z" fill="white"/>
<path d="M114.553 28.8013L113.919 25.6435H110.062L109.452 28.8013H104.421L109.17 12.5254H114.922L119.648 28.8013H114.553ZM110.743 22.2745H113.244L111.982 15.8886L110.743 22.2745Z" fill="white"/>
<path d="M133.331 12.5254V28.8013H128.517V16.0822H126.205L125.665 20.6663C125.447 22.4916 125.154 23.9707 124.79 25.1094C124.426 26.2481 123.868 27.1696 123.129 27.868C122.389 28.5723 121.374 29.036 120.076 29.2708L118.955 25.9957C119.501 25.7609 119.912 25.4381 120.182 25.0272C120.452 24.6164 120.657 24.0822 120.792 23.4249C120.927 22.7734 121.074 21.7286 121.25 20.2906L122.184 12.5254H133.337H133.331Z" fill="white"/>
<path d="M148.029 14.3154C149.35 15.8179 150.007 17.925 150.007 20.6426C150.007 22.4034 149.708 23.9295 149.121 25.2266C148.528 26.5179 147.665 27.5157 146.526 28.22C145.388 28.9243 144.014 29.2706 142.412 29.2706C139.981 29.2706 138.109 28.5135 136.788 26.9933C135.467 25.4731 134.81 23.3543 134.81 20.6485C134.81 18.8876 135.109 17.3616 135.696 16.0762C136.289 14.7908 137.152 13.7989 138.291 13.1063C139.43 12.4137 140.803 12.0674 142.406 12.0674C144.836 12.0674 146.708 12.8187 148.029 14.3212V14.3154ZM140.416 16.6514C140.011 17.4379 139.805 18.7702 139.805 20.6367C139.805 22.5032 140.005 23.8414 140.416 24.6455C140.821 25.4496 141.484 25.8487 142.4 25.8487C143.316 25.8487 144.002 25.4496 144.401 24.6573C144.801 23.8649 145 22.5208 145 20.6367C145 18.7526 144.801 17.4379 144.396 16.6514C143.991 15.8649 143.327 15.4716 142.406 15.4716C141.484 15.4716 140.827 15.8649 140.422 16.6514H140.416Z" fill="white"/>
<path d="M162.54 12.5254L162.07 16.2231H156.294V28.8013H151.475V12.5254H162.534H162.54Z" fill="white"/>
<path d="M71.5492 22.0751C72.4374 22.0751 73.1575 21.3551 73.1575 20.4668C73.1575 19.5785 72.4374 18.8584 71.5492 18.8584C70.6609 18.8584 69.9408 19.5785 69.9408 20.4668C69.9408 21.3551 70.6609 22.0751 71.5492 22.0751Z" fill="white"/>
</g>
<defs>
<radialGradient id="paint0_radial_4069_318" cx="0" cy="0" r="1" gradientUnits="userSpaceOnUse" gradientTransform="translate(21.0674 35.0922) scale(15.2972 3.05913)">
<stop offset="0.22" stop-opacity="0.3"/>
<stop offset="1" stop-opacity="0"/>
</radialGradient>
<radialGradient id="paint1_radial_4069_318" cx="0" cy="0" r="1" gradientUnits="userSpaceOnUse" gradientTransform="translate(17.8799 4.39606) scale(17.6275 17.6258)">
<stop stop-color="white"/>
<stop offset="0.31" stop-color="#E6D7DF"/>
<stop offset="0.65" stop-color="#FFFCE7"/>
<stop offset="0.79" stop-color="#F7F4E5"/>
<stop offset="1" stop-color="#E2E1E1"/>
</radialGradient>
<linearGradient id="paint2_linear_4069_318" x1="21.1906" y1="34.3302" x2="21.1906" y2="0" gradientUnits="userSpaceOnUse">
<stop stop-color="white" stop-opacity="0"/>
<stop offset="1" stop-color="#A99893"/>
</linearGradient>
<radialGradient id="paint3_radial_4069_318" cx="0" cy="0" r="1" gradientUnits="userSpaceOnUse" gradientTransform="translate(40.2915 27.0226) scale(22.7344 22.7322)">
<stop stop-color="#D20A11"/>
<stop offset="0.52" stop-color="#E30613"/>
<stop offset="0.63" stop-color="#C90D18"/>
<stop offset="0.85" stop-color="#871F26"/>
<stop offset="1" stop-color="#582C30"/>
</radialGradient>
<radialGradient id="paint4_radial_4069_318" cx="0" cy="0" r="1" gradientUnits="userSpaceOnUse" gradientTransform="translate(7.11439 32.7335) scale(16.8175 16.8158)">
<stop stop-color="#C1D9F3"/>
<stop offset="0.35" stop-color="#0090CF"/>
<stop offset="0.67" stop-color="#004B8E"/>
<stop offset="1" stop-color="#322455"/>
</radialGradient>
<clipPath id="clip0_4069_318">
<rect width="162.54" height="40" fill="white"/>
</clipPath>
</defs>
</svg>
