<svg width="128" height="120" viewBox="0 0 128 120" fill="none" xmlns="http://www.w3.org/2000/svg">
<g clip-path="url(#clip0_2019_825)">
<path style="mix-blend-mode:multiply" d="M64.0079 120C98.9155 120 127.214 113.407 127.214 105.275C127.214 97.1424 98.9155 90.5498 64.0079 90.5498C29.1002 90.5498 0.802002 97.1424 0.802002 105.275C0.802002 113.407 29.1002 120 64.0079 120Z" fill="url(#paint0_radial_2019_825)"/>
<path d="M67.5909 21.0897C75.1027 25.4113 82.5516 33.1746 83.1174 46.9881C81.7659 61.6188 73.7041 62.6245 73.7041 62.6245C79.7386 38.1562 54.0446 34.6046 42.604 47.9153C42.4469 47.9624 42.2897 47.9938 42.1483 48.0253C28.099 53.6041 23.6045 65.0289 22.3002 73.5936C21.3573 70.1049 20.8387 66.4276 20.8387 62.6402C20.8387 39.5234 39.571 20.7754 62.7035 20.7754C64.3536 20.7754 65.988 20.8854 67.6066 21.074L67.5909 21.0897Z" fill="url(#paint1_radial_2019_825)"/>
<path d="M69.8853 102.383V35.7046L71.5511 35.2017V34.3373H72.4312V32.0115H68.361V26.2441H68.5495V25.3798H68.911V24.8298H68.0781C67.8109 23.9026 67.1666 23.1325 66.3023 22.6611C66.3809 22.3311 66.6009 21.7339 67.2923 21.4982C68.251 21.1681 68.7224 20.5238 68.7224 20.5238C68.7224 20.5238 67.4181 18.5595 67.1352 18.0409C66.8523 17.5223 66.648 16.7365 66.648 16.7365C66.648 16.7365 66.9309 17.0822 66.9309 16.4379C66.9309 15.7936 67.2138 15.5736 67.2138 15.5736L67.9209 17.0665C67.9209 17.0665 68.5338 14.1121 68.3924 12.1163C68.2509 10.1048 67.5123 8.48612 66.4437 8.53326C65.5637 8.56469 65.2651 9.38187 65.1865 9.63331V3.88161H67.6381V3.06443H65.1865V0H64.4322V3.06443H61.9964V3.88161H64.4322V9.53902L63.8507 9.39759C63.8507 9.39759 64.0393 8.32897 63.1907 8.18753C62.3578 8.0461 62.7035 9.24044 62.515 9.28758C62.3264 9.33473 61.6978 8.6747 61.7921 7.70037C61.8864 6.72603 61.8392 6.30173 61.8392 6.30173C61.8392 6.30173 62.3578 5.6417 62.3264 5.45312C62.295 5.26454 62.0907 4.98167 62.0907 4.98167C62.0907 4.98167 61.3678 5.86171 61.4463 6.14458C61.5249 6.42745 61.0692 7.48035 61.4463 9.38187C61.8235 11.2834 61.9492 11.6134 62.0907 12.2577C62.2321 12.9178 62.4207 14.4735 62.405 15.4636C62.3735 16.4379 62.2164 17.3965 62.405 17.4437C62.5935 17.4908 62.7978 18.4966 62.6878 19.4081C62.5778 20.3195 62.4521 21.7967 62.4521 21.7967C62.4521 21.7967 62.5621 22.1582 62.9707 22.1739C63.1279 22.1739 63.2221 22.2368 63.3007 22.3153C61.9964 22.6611 60.9906 23.6197 60.6449 24.8455H59.8277V25.3955H60.2049V26.2598H60.3934V32.0272H56.3232V34.3531H57.2033V35.2174L58.8691 35.7203V103.012L69.9325 102.399L69.8853 102.383Z" fill="url(#paint2_linear_2019_825)"/>
<path d="M104.553 62.6561C104.553 72.2737 101.3 81.1212 95.8465 88.193C94.2279 89.2773 92.4835 90.236 90.6449 91.0217C83.2431 94.1961 74.0184 94.5104 63.5207 87.3758C55.2075 79.0626 58.6176 71.4565 58.6176 71.4565C77.2871 91.3046 98.4552 67.6535 85.6632 49.974C85.7732 48.9997 85.8518 48.0411 85.8832 47.1139C86.3075 35.5005 80.8858 27.6744 74.8827 22.6299C92.0435 27.8316 104.553 43.7823 104.553 62.6561Z" fill="url(#paint3_radial_2019_825)"/>
<path d="M59.8434 87.8001C70.9225 98.2034 82.0487 97.4491 90.7863 93.6775C83.3531 100.419 73.5155 104.521 62.7035 104.521C46.0142 104.521 31.6035 94.7461 24.8774 80.6183V80.5397C24.6574 71.8807 27.0618 59.8744 39.8853 51.9069C53.1645 45.6366 58.1776 52.3784 58.1776 52.3784C33.9136 60.0787 41.3939 88.0986 59.8591 87.7843L59.8434 87.8001Z" fill="url(#paint4_radial_2019_825)"/>
</g>
<defs>
<radialGradient id="paint0_radial_2019_825" cx="0" cy="0" r="1" gradientUnits="userSpaceOnUse" gradientTransform="translate(64.0079 105.272) scale(45.8879 9.17758)">
<stop offset="0.22" stop-opacity="0.5"/>
<stop offset="1" stop-opacity="0"/>
</radialGradient>
<radialGradient id="paint1_radial_2019_825" cx="0" cy="0" r="1" gradientUnits="userSpaceOnUse" gradientTransform="translate(54.4374 13.185) scale(52.8811 52.8811)">
<stop stop-color="white"/>
<stop offset="0.31" stop-color="#E6D7DF"/>
<stop offset="0.65" stop-color="#FFFCE7"/>
<stop offset="0.79" stop-color="#F7F4E5"/>
<stop offset="1" stop-color="#E2E1E1"/>
</radialGradient>
<linearGradient id="paint2_linear_2019_825" x1="64.3536" y1="102.996" x2="64.3536" y2="0" gradientUnits="userSpaceOnUse">
<stop stop-color="white" stop-opacity="0"/>
<stop offset="1" stop-color="#A99893"/>
</linearGradient>
<radialGradient id="paint3_radial_2019_825" cx="0" cy="0" r="1" gradientUnits="userSpaceOnUse" gradientTransform="translate(121.666 81.0741) scale(68.1875 68.1875)">
<stop stop-color="#D20A11"/>
<stop offset="0.52" stop-color="#E30613"/>
<stop offset="0.63" stop-color="#C90D18"/>
<stop offset="0.85" stop-color="#871F26"/>
<stop offset="1" stop-color="#582C30"/>
</radialGradient>
<radialGradient id="paint4_radial_2019_825" cx="0" cy="0" r="1" gradientUnits="userSpaceOnUse" gradientTransform="translate(22.143 98.2034) scale(50.4453 50.4453)">
<stop stop-color="#C1D9F3"/>
<stop offset="0.35" stop-color="#0090CF"/>
<stop offset="0.67" stop-color="#004B8E"/>
<stop offset="1" stop-color="#322455"/>
</radialGradient>
<clipPath id="clip0_2019_825">
<rect width="126.396" height="120" fill="white" transform="translate(0.802002)"/>
</clipPath>
</defs>
</svg>
